<svg id="Calque_1" data-name="Calque 1" xmlns="http://www.w3.org/2000/svg" viewBox="0 0 1.42 6.51"><title>icon-arrow-down</title><path d="M2.78,1.9a4,4,0,0,0,0,1.42,1.65,1.65,0,0,0,.28.62,1.34,1.34,0,0,1,.37.57.76.76,0,0,1-.26.66,4.72,4.72,0,0,1-.63.44,1.19,1.19,0,0,0-.45.54.62.62,0,0,0,0,.33.85.85,0,0,0,.17.31c.16.18.33.34.48.52A1.22,1.22,0,0,1,3,7.9a.48.48,0,0,1,0,.17s0,0,0,0c0-.46-.33-.83-.62-1.13a.92.92,0,0,1-.35-.63.92.92,0,0,1,.36-.6c.2-.17.44-.28.64-.45a1,1,0,0,0,.38-.57.64.64,0,0,0,0-.33,1.31,1.31,0,0,0-.19-.27A2.92,2.92,0,0,1,3,3.81a1,1,0,0,1-.15-.32,3.24,3.24,0,0,1-.07-1.42l0-.18s0,0,0,0Z" transform="translate(-2.05 -1.89)"/><polygon points="0.98 6.51 0.68 6.21 1.29 6.21 0.98 6.51"/></svg>