<svg id="Calque_1" data-name="Calque 1" xmlns="http://www.w3.org/2000/svg" viewBox="0 0 100 150"><defs><style>.cls-1{fill:#05ab9e;}</style></defs><title>logo</title><path class="cls-1" d="M94.35,95.46c-1-17.88-13-27.55-16.28-29.31a2.9,2.9,0,0,0-3.88,1.2,26.9,26.9,0,0,1-33.5,12,27.52,27.52,0,0,1-5.5-3,27,27,0,0,1-10-13.22c-.16-.47-.31-.94-.46-1.42a.66.66,0,0,1,.63-.83H90.08A3.9,3.9,0,0,0,94,57.31c.07-1,.1-2,.1-2.93a41.89,41.89,0,0,0-.4-5.86,43.48,43.48,0,1,0-18,41.38.66.66,0,0,1,1,.33,26.91,26.91,0,0,1-48.66,22,20.53,20.53,0,0,0-5.62-5.94,24.7,24.7,0,0,0-8.4-4.39,26.21,26.21,0,0,0-5.09-1.1l10,11.79a3.49,3.49,0,0,1,3.79,5.8,3.49,3.49,0,0,1-5.12-4.67L7.66,102A43.49,43.49,0,0,0,31,136.82l.49.25A43.48,43.48,0,0,0,94.44,98.2C94.44,97.27,94.4,96.36,94.35,95.46ZM24.55,47.71a26.91,26.91,0,0,1,52.14,0,.64.64,0,0,1-.63.8H25.18A.64.64,0,0,1,24.55,47.71Z"/></svg>