<svg id="Calque_1" data-name="Calque 1" xmlns="http://www.w3.org/2000/svg" viewBox="0 0 797 1633"><title>icon-arrow-down</title><path d="M410.51,99.63C397,201.1,384.47,307,407.48,408c11.1,48.74,31.4,94.75,62,134.4,30,38.82,70,75.23,79.45,125.49,10.07,53.31-19.39,105-56.08,141.37C453,848.85,401.59,874.13,356,906.12c-42,29.47-80.77,67.11-97.5,116.93-7.76,23.13-9.76,48.22-3.55,72,6.63,25.31,21.75,47.41,38.57,67,33.23,38.8,71.53,72.87,103.7,112.68,30.25,37.43,57.12,80.42,63.37,129.06a168.61,168.61,0,0,1,.56,37.17c-.27,2.84,7.47,1.34,7.7-1.06,9.43-100.73-71.37-179.67-135.6-246-36.41-37.59-77-79.17-74.14-135.57,2.63-52.61,37.29-99,76.67-131.34,43.92-36,95.64-60.94,140.08-96.27,38.94-30.94,74.08-74.13,81.51-124.72a124.82,124.82,0,0,0-10.74-70.94c-10.21-22-25.31-41.27-40.67-59.86-16.06-19.44-32.66-38.48-46.25-59.8a326,326,0,0,1-33.08-69.27c-34-98.81-25.74-207.09-13.34-309q2.36-19.32,4.95-38.6c.37-2.78-7.38-1.37-7.7,1.06Z"/><polygon points="465 1511.71 398.29 1445 531.71 1445 465 1511.71"/></svg>